<svg id="Layer_1" data-name="Layer 1" xmlns="http://www.w3.org/2000/svg" xmlns:xlink="http://www.w3.org/1999/xlink" viewBox="0 0 783.73 384"><defs><style>.cls-1,.cls-13,.cls-15,.cls-3,.cls-5,.cls-8,.cls-9{fill:none;}.cls-1,.cls-10,.cls-11,.cls-12,.cls-13,.cls-14,.cls-15,.cls-16,.cls-17,.cls-3,.cls-4,.cls-5,.cls-6,.cls-7,.cls-8,.cls-9{stroke-miterlimit:10;stroke-width:4.75px;}.cls-1{stroke:url(#linear-gradient);}.cls-2{clip-path:url(#clip-path);}.cls-3{stroke:url(#linear-gradient-2);}.cls-4{fill:url(#linear-gradient-3);stroke:url(#linear-gradient-4);}.cls-5{stroke:url(#linear-gradient-5);}.cls-6{fill:url(#linear-gradient-6);stroke:url(#linear-gradient-7);}.cls-7{fill:#fdd712;stroke:url(#linear-gradient-8);}.cls-8{stroke:url(#linear-gradient-9);}.cls-9{stroke:url(#linear-gradient-10);}.cls-10{fill:url(#linear-gradient-11);stroke:url(#linear-gradient-12);}.cls-11{fill:url(#linear-gradient-13);stroke:url(#linear-gradient-14);}.cls-12{fill:url(#linear-gradient-15);stroke:url(#linear-gradient-16);}.cls-13{stroke:url(#linear-gradient-17);}.cls-14{fill:url(#linear-gradient-18);stroke:url(#linear-gradient-19);}.cls-15{stroke:url(#linear-gradient-20);}.cls-16{fill:url(#linear-gradient-21);stroke:url(#linear-gradient-22);}.cls-17{fill:url(#linear-gradient-23);stroke:url(#linear-gradient-24);}.cls-18{fill:#14364b;}</style><linearGradient id="linear-gradient" x1="16.96" y1="194.08" x2="326.36" y2="194.08" gradientUnits="userSpaceOnUse"><stop offset="0.02" stop-color="#4badf8"/><stop offset="1" stop-color="#3858f8"/></linearGradient><clipPath id="clip-path"><path class="cls-1" d="M19.34,111.77V276.39a5.7,5.7,0,0,0,2.9,5l146.63,82.44a5.71,5.71,0,0,0,5.58,0l146.63-82.44a5.69,5.69,0,0,0,2.91-5V111.77a5.7,5.7,0,0,0-2.91-5L248.27,65.86l-73.82-41.5a5.71,5.71,0,0,0-5.58,0L22.24,106.8A5.71,5.71,0,0,0,19.34,111.77Z"/></clipPath><linearGradient id="linear-gradient-2" x1="95.75" y1="223.87" x2="176.94" y2="223.87" xlink:href="#linear-gradient"/><linearGradient id="linear-gradient-3" x1="68.05" y1="62.64" x2="323.01" y2="62.64" gradientUnits="userSpaceOnUse"><stop offset="0.02" stop-color="#43c3fd"/><stop offset="1" stop-color="#3858f8"/></linearGradient><linearGradient id="linear-gradient-4" x1="65.67" y1="62.64" x2="325.39" y2="62.64" xlink:href="#linear-gradient"/><linearGradient id="linear-gradient-5" x1="96.17" y1="276.34" x2="251.58" y2="276.34" xlink:href="#linear-gradient"/><linearGradient id="linear-gradient-6" x1="99.39" y1="276.39" x2="248.57" y2="276.39" xlink:href="#linear-gradient-3"/><linearGradient id="linear-gradient-7" x1="94.64" y1="276.3" x2="253.12" y2="276.3" xlink:href="#linear-gradient"/><linearGradient id="linear-gradient-8" x1="244.64" y1="252.75" x2="327.53" y2="252.75" xlink:href="#linear-gradient"/><linearGradient id="linear-gradient-9" x1="193.13" y1="279.25" x2="250.51" y2="279.25" xlink:href="#linear-gradient"/><linearGradient id="linear-gradient-10" x1="193.39" y1="277.6" x2="251.16" y2="277.6" xlink:href="#linear-gradient"/><linearGradient id="linear-gradient-11" x1="246.82" y1="191.27" x2="318.63" y2="191.27" xlink:href="#linear-gradient-3"/><linearGradient id="linear-gradient-12" x1="244.44" y1="191.1" x2="321.09" y2="191.1" xlink:href="#linear-gradient"/><linearGradient id="linear-gradient-13" x1="175.24" y1="191.22" x2="248.57" y2="191.22" xlink:href="#linear-gradient-3"/><linearGradient id="linear-gradient-14" x1="171.66" y1="190.36" x2="250.95" y2="190.36" xlink:href="#linear-gradient"/><linearGradient id="linear-gradient-15" x1="173.15" y1="139.8" x2="248.37" y2="139.8" xlink:href="#linear-gradient-3"/><linearGradient id="linear-gradient-16" x1="170.77" y1="139.13" x2="251.41" y2="139.13" xlink:href="#linear-gradient"/><linearGradient id="linear-gradient-17" x1="64.65" y1="303.17" x2="101.06" y2="303.17" xlink:href="#linear-gradient"/><linearGradient id="linear-gradient-18" x1="95.33" y1="224.69" x2="176.41" y2="224.69" xlink:href="#linear-gradient-3"/><linearGradient id="linear-gradient-19" x1="92.95" y1="225.03" x2="178.78" y2="225.03" xlink:href="#linear-gradient"/><linearGradient id="linear-gradient-20" x1="14.67" y1="191.09" x2="175.7" y2="191.09" xlink:href="#linear-gradient"/><linearGradient id="linear-gradient-21" x1="14.45" y1="191.19" x2="176.41" y2="191.19" xlink:href="#linear-gradient-3"/><linearGradient id="linear-gradient-22" x1="12.07" y1="191.53" x2="178.78" y2="191.53" xlink:href="#linear-gradient"/><linearGradient id="linear-gradient-23" x1="195.55" y1="125.87" x2="325.86" y2="125.87" gradientUnits="userSpaceOnUse"><stop offset="0" stop-color="#43c3fd"/><stop offset="0.51" stop-color="#395ef8"/><stop offset="1" stop-color="#3858f8"/></linearGradient><linearGradient id="linear-gradient-24" x1="193.17" y1="125.79" x2="328.24" y2="125.79" xlink:href="#linear-gradient"/></defs><g class="cls-2"><path class="cls-3" d="M173.32,190.37s2.18,72.9.77,76.3A93.87,93.87,0,0,0,171,277.1s-54.21-32.79-58.91-35.47S98.41,241,98.41,241s-1.32-50.67,1.7-56.7,6-18.08,22.82-14.21,19.37,14.36,32.29,14.64S173.32,190.37,173.32,190.37Z"/><path class="cls-4" d="M223.06,83.2a25.29,25.29,0,0,1,14.35,4.49,24.87,24.87,0,0,1,10.86,20.68l.09,41.78L319.67,109c-1.92-2.65-5.32-4.44-8.61-6.17-.61-.32-1.21-.63-1.78-1l-50.2-28.43a22.82,22.82,0,0,1-12.46-21l-33-78.51L152.84-61.13a23.59,23.59,0,0,0-11.1-3.17v39.17c0,9,28.31,22.31,20.55,26.91a25.06,25.06,0,0,1-25,.38L69.13-22.37c-1.9,3.5,30.05,12.59,30.05,16.56v56.2a24,24,0,0,0,12,20.78L137.4,86.31c7,4,11.22,10.45,11.87,18a25.59,25.59,0,0,1-7.33,19.72,26.29,26.29,0,0,1,20.29,4.57,27.71,27.71,0,0,1,10.92,15V122.81a25.54,25.54,0,0,1,13-22.28l21.36-12a24.8,24.8,0,0,1,3.34-2.21,24.07,24.07,0,0,1,3.4-1.55A24.77,24.77,0,0,1,223.06,83.2ZM173.69,191.14h-1.14V150.38a25.32,25.32,0,0,0-11.2-20.49c-6.8-4.75-15-6-22-3.49l-4.19,1.54,3.43-2.85c6.38-5.31,9.81-13,9.16-20.62-.6-7.06-4.54-13-11.1-16.82L110.42,72.51A25.6,25.6,0,0,1,97.64,50.39V-5.81c0-4.49-31.75-14.09-29.48-18l.38-.65L138,.81A23.53,23.53,0,0,0,161.5.45c7.3-4.31-21.3-17.11-21.3-25.58V-65.86H141a25.23,25.23,0,0,1,12.64,3.39L215.21-27l33,79.4c0,8.82,3.92,15.44,11.66,19.69L310,100.56l1.75.94c3.57,1.87,9.21,2.8,11.23,6.19v1.2L321.15,110,248.22,152l-1.4-.79-.1-42.85a23.64,23.64,0,0,0-31.85-22.15,24.06,24.06,0,0,0-3.22,1.47,24.74,24.74,0,0,0-3.23,2.13l-21.46,12a24,24,0,0,0-12.27,20.94v56.63a23.48,23.48,0,0,0,2.41,10.44l.48,1-1.09.12A23.41,23.41,0,0,1,173.69,191.14Zm.4-4.81v3.27l1.16,0A25.27,25.27,0,0,1,174.09,186.33Z"/><path class="cls-5" d="M100.93,324.89l61.29-35.41a28.57,28.57,0,0,0,10-9.46c2.14-3.67,1.07-9,1.07-13.34V190.37a26.53,26.53,0,0,0,3.09-.15,24.54,24.54,0,0,0,10.18,10.84l48.85,27.33a24.83,24.83,0,0,0,12.35,3.13v3.11l-39.7,24.66a24.42,24.42,0,0,0,.72,41.95l38.05,21.83-61.3,36.17a24.44,24.44,0,0,1-24.58.15Z"/><path class="cls-6" d="M173.15,363.4a25.16,25.16,0,0,1-12.55-3.34L99.39,324.89l1.16-.67,61.29-35.41a27.91,27.91,0,0,0,9.75-9.18c1.49-2.57,1.29-6.12,1.09-9.55-.07-1.16-.13-2.31-.13-3.41V189.58l.78,0a22.6,22.6,0,0,0,3-.15l.54-.06.24.5A23.61,23.61,0,0,0,187,200.38l48.84,27.34a24.25,24.25,0,0,0,11.71,3h1v4.31L208.5,259.94a23.67,23.67,0,0,0,.69,40.64l39.2,22.48L186,359.91A25.23,25.23,0,0,1,173.15,363.4Zm-70.67-38.51,58.88,33.83a23.71,23.71,0,0,0,23.81-.14l60.16-35.5-36.91-21.17a25.2,25.2,0,0,1-.74-43.28L247,234.2v-1.91a25.61,25.61,0,0,1-12-3.23l-48.84-27.33A25.15,25.15,0,0,1,176,191c-.61.06-1.23.09-1.86.1v75.53c0,1.07.07,2.19.13,3.32.21,3.67.42,7.45-1.3,10.42a29.51,29.51,0,0,1-10.32,9.74Z"/><path class="cls-7" d="M247.24,323.74l-.22-93h.77a23.9,23.9,0,0,0,11.27-2.94l50.18-27.47c3.12-1.7,12-11.53,14.12-14.46l1.19-1.66.2,2a142.32,142.32,0,0,1,.27,17.44c0,1.92-.1,3.65-.1,5.07l-.16,55.56c0,13-4.55,18.18-12.42,22.83Zm1.33-89.12.21,86.49,62.79-35.3c7.55-4.45,11.65-9.21,11.65-21.49l.16-55.57c0-1.43.05-3.17.1-5.1.12-4.6.27-10.19-.09-15.3C320.18,192.27,313.06,200,310,201.7L259.8,229.16a25.43,25.43,0,0,1-11.23,3.12Z"/><path class="cls-8" d="M248.09,234.77l-1,89.07s-40.79-21.73-43.93-26.67-11.21-15.64-5.85-25.05,6.71-10,20.07-18.92S248.09,234.77,248.09,234.77Z"/><path class="cls-9" d="M247.08,323.84h-.41l-.19-.1-38.06-21.83a25.2,25.2,0,0,1-.74-43.28h0l40.88-25.39.22,89.63ZM247,236,208.5,259.94a23.67,23.67,0,0,0,.69,40.64l37.68,21.61.37-.21Z"/><path class="cls-10" d="M247,232.3,246.82,151l1.4-.79,62.44,36c5.06,2.49,7.67,4.92,7.94,7.4l0,.29-.17.25A25.48,25.48,0,0,1,310,201.7L259.8,229.16a25.47,25.47,0,0,1-12,3.14Zm1.34-80.19.19,78.62a23.86,23.86,0,0,0,10.5-2.92l50.18-27.47a23.74,23.74,0,0,0,7.78-6.8c-.3-1.31-1.83-3.34-7.08-5.93Z"/><path class="cls-11" d="M247.52,232.3a25.67,25.67,0,0,1-12.46-3.24l-48.84-27.33a25.14,25.14,0,0,1-10.51-11.18l-.47-1,1.08-.12a23.61,23.61,0,0,0,9.11-3l62.93-36.31.21,82.15h-1Zm-69.94-41.46a23.62,23.62,0,0,0,9.39,9.54l48.84,27.34a24.08,24.08,0,0,0,11.21,3l-.19-77.94-60.63,35A25.15,25.15,0,0,1,177.58,190.84Z"/><path class="cls-12" d="M176,191.05l-.24-.49a25.09,25.09,0,0,1-2.56-11.12V122.81a25.54,25.54,0,0,1,13-22.28l21.36-12,.85,1.28a23.69,23.69,0,0,0,2.83,39.09l37.13,21.4v1.59L186.2,187.78a25,25,0,0,1-9.71,3.2ZM203.32,92.7,187,101.87a24,24,0,0,0-12.27,20.94v56.63a23.53,23.53,0,0,0,2.17,9.94,23.41,23.41,0,0,0,8.57-2.93l61.23-35.32-36.19-20.86a25.28,25.28,0,0,1-7.15-37.57Z"/><path class="cls-13" d="M67,296.53a15.63,15.63,0,0,1,6-12.42l4.28-2.4h0a15.79,15.79,0,0,1,21.27,14.78l.06,27.42L74.92,310.21A15.64,15.64,0,0,1,67,296.53Z"/><path class="cls-14" d="M171.07,283,109,247a21.46,21.46,0,0,0-10.63-2.91l-3.06,0V194.61a28.23,28.23,0,0,1,13.79-24.56,27.29,27.29,0,0,1,26.92-.3l27.32,14.92a21.25,21.25,0,0,0,10,2.61l3.06,0v79.36a27.46,27.46,0,0,1-2.07,10.44,23.31,23.31,0,0,1-3.27,5.93Zm-69.57-45a27.72,27.72,0,0,1,10.62,3.56l56.57,33a21.23,21.23,0,0,0,1.55-7.95V193.25a27.56,27.56,0,0,1-9.84-3.16l-27.31-14.92A21.35,21.35,0,0,0,101.5,193.9Z"/><path class="cls-15" d="M22.33,267.11l.05-142.74v-.25c0-5.5-7.91-15.71-4.47-20,1.09-1.36,2-2.15,2.27-1.6,2.61,5.29,2.94,6.07,5.12,7.38l60.11,35.23a24.77,24.77,0,0,0,19.14,2.71,24.21,24.21,0,0,0,6.15-2.56l26.43-15.46a25.72,25.72,0,0,0,3.44-2.42l0,0a24.44,24.44,0,0,1,32.73,23v40a24.4,24.4,0,0,1-11.44-3l-27.31-14.92A24.44,24.44,0,0,0,98.41,193.9V241a24.39,24.39,0,0,0-12.22,3.19l-59.85,35C22.47,274.61,22.33,271.5,22.33,267.11Z"/><path class="cls-16" d="M25.67,283.12l-1.67-2c-4.43-5.18-4.76-8.92-4.76-14l.05-142.74c0-6.58-7.56-17.47-3.78-22.18,1.22-1.53,2.72-3.15,4.78-2.91l1.68.19,1.28,2.3c2.32,4.7,2.39,4.74,3.64,5.49L87,142.48a21.79,21.79,0,0,0,16.76,2.38,21.4,21.4,0,0,0,5.38-2.24l26.44-15.47a22.05,22.05,0,0,0,2.88-2l.78-.63.28,0a27.44,27.44,0,0,1,25.17,3.35,27.16,27.16,0,0,1,11.72,22.54v43.1l-3.11,0a27.55,27.55,0,0,1-12.9-3.36l-27.31-14.92A21.35,21.35,0,0,0,101.5,193.9v50.17l-3.11,0a21.31,21.31,0,0,0-10.68,2.78Zm-.26-16c0,3.35.09,5.42,1.74,8l57.48-33.62A27.69,27.69,0,0,1,95.33,238V193.9A27.53,27.53,0,0,1,136,169.75l27.32,14.92a21.19,21.19,0,0,0,6.88,2.35V150.38a21,21,0,0,0-9.09-17.48,21.31,21.31,0,0,0-19-2.79,27.3,27.3,0,0,1-3.45,2.37l-26.43,15.46a27.66,27.66,0,0,1-6.91,2.88,28,28,0,0,1-21.53-3L23.71,112.55c-2.18-1.31-3.08-2.39-4.47-5-2.21,3.38,6.2,12.3,6.22,16.58Z"/><path class="cls-17" d="M324.21,108.89l-4.09-2.79-69.45,40-.09-37.78a27.14,27.14,0,0,0-11.85-22.57,27.72,27.72,0,0,0-10.49-4.4L264,61.33,261,56,213.08,82.82v0l-6.65,3.69-.39.26a27.55,27.55,0,0,0,3.26,45.49L242,151.13l8.66,5,47.78,27.54A143.68,143.68,0,0,1,314,193.73c.23.17.44.31.94.64l2.14,1.42,1.79-1.84c4.16-4.31,6.75-8.28,6.75-14.67V123C325.58,118,326.78,113.22,324.21,108.89Zm-111.8,18a21.37,21.37,0,0,1-2.75-35.13l6.23-3.48a21.34,21.34,0,0,1,28.52,20.05l.08,37.06Zm107,52.35c0,3.27-.8,5.5-3.24,8.4a161.64,161.64,0,0,0-14.63-9.36l-47.17-27.19,65-37.43c0,2.4,0,6.39,0,9.27Z"/></g><path class="cls-1" d="M19.34,111.77V276.39a5.7,5.7,0,0,0,2.9,5l146.63,82.44a5.71,5.71,0,0,0,5.58,0l146.63-82.44a5.69,5.69,0,0,0,2.91-5V111.77a5.7,5.7,0,0,0-2.91-5L248.27,65.86l-73.82-41.5a5.71,5.71,0,0,0-5.58,0L22.24,106.8A5.71,5.71,0,0,0,19.34,111.77Z"/><path class="cls-18" d="M372,230.38c0-54.37,38.84-92.85,93.91-92.85s93.56,37.77,93.56,92.85v86.14H537.61V290.35c-19.12,20.09-41.3,30.76-75.2,30.76C413.34,321.11,372,286.16,372,230.38Zm163.82-1.06c0-40.25-28.25-69.9-69.91-69.9S396,189.07,396,229.32s28.25,69.9,69.9,69.9S535.85,269.57,535.85,229.32Z"/><path class="cls-18" d="M582,65.86h23.65V316.52H582Z"/><path class="cls-18" d="M628.13,252.27V65.86h23.65v76.26H754.51v21.53H651.78v88.62c0,31.77,17.65,47,44.84,47,26.83,0,44.83-14.83,44.83-47v-3.89H764.4v3.89c0,45.89-27.53,68.84-67.78,68.84C656,321.11,628.13,298.16,628.13,252.27Z"/></svg>